<svg width="207" height="183" viewBox="0 0 207 183" fill="none" xmlns="http://www.w3.org/2000/svg">
<g filter="url(#filter0_f_3721_2176)">
<circle cx="103.5" cy="79.5" r="63.5" fill="#005E4F"/>
</g>
<mask id="mask0_3721_2176" style="mask-type:luminance" maskUnits="userSpaceOnUse" x="56" y="21" width="90" height="104">
<path d="M108.424 83.3969C107.355 84.4655 107.355 86.1911 108.424 87.2597C109.492 88.3282 111.218 88.3282 112.286 87.2597C113.355 86.1911 113.355 84.4655 112.286 83.3969C111.756 82.8666 111.051 82.5975 110.355 82.5975C109.658 82.5975 108.962 82.8666 108.424 83.3969ZM98.2127 83.294C97.1442 84.3626 97.1442 86.0882 98.2127 87.1568C99.2813 88.2253 101.007 88.2253 102.075 87.1568C103.144 86.0882 103.144 84.3626 102.075 83.294C101.545 82.7637 100.841 82.4946 100.144 82.4946C99.4475 82.4946 98.7431 82.7637 98.2127 83.294ZM118.611 83.294C117.542 84.3626 117.542 86.0882 118.611 87.1568C119.679 88.2253 121.405 88.2253 122.465 87.1568C123.534 86.0882 123.534 84.3626 122.465 83.294C121.935 82.7637 121.239 82.4946 120.534 82.4946C119.83 82.4946 119.133 82.7637 118.603 83.294M71.4429 96.8294L76.3346 94.2885L76.303 106.826H72.2424C72.0128 106.826 71.8228 106.739 71.6566 106.581C71.4983 106.415 71.4112 106.225 71.4112 105.995V102.133C71.4112 102.133 71.4271 102.141 71.435 102.148V96.8294H71.4429ZM78.7409 85.5974L68.7359 91.1619C65.2452 92.8717 65.3164 96.3861 65.3402 97.5497V97.7555V98.547C65.3322 98.547 65.3243 98.547 65.3164 98.547V106.154C65.3164 106.486 65.3481 106.811 65.3956 107.135H62.2452V89.0169H56.0079V113.372H81.8596C81.8596 113.372 81.8596 113.325 81.8596 113.301C82.1445 113.325 82.4374 113.349 82.7223 113.372L82.8173 83.3336L82.7857 83.3495V82.0513C82.7857 82.0513 81.535 83.951 78.7488 85.5895M57.8918 81.4577C56.8232 82.5263 56.8232 84.2518 57.8918 85.3204C58.9604 86.389 60.6859 86.389 61.7545 85.3204C62.8231 84.2518 62.8231 82.5263 61.7545 81.4577C61.2242 80.9274 60.5197 80.6582 59.8231 80.6582C59.1266 80.6582 58.4221 80.9274 57.8918 81.4577ZM64.6832 81.4577C63.6146 82.5263 63.6146 84.2518 64.6832 85.3204C65.7518 86.389 67.4773 86.389 68.5459 85.3204C69.6145 84.2518 69.6145 82.5263 68.5459 81.4577C68.0155 80.9274 67.3111 80.6582 66.6145 80.6582C65.918 80.6582 65.2135 80.9274 64.6832 81.4577ZM138.977 80.2862V111.671C141.731 111.758 143.972 113.008 144.636 114.172H145.214V77.1042L138.977 80.2862ZM129.383 104.452C129.383 105.861 128.236 107.009 126.835 107.009C125.576 107.009 124.531 106.098 124.326 104.903C124.326 104.856 124.326 104.808 124.326 104.761V87.6871C124.033 88.3362 123.574 88.9456 122.853 89.3731L118.08 91.811V104.46H118.033C118.033 104.65 118.033 104.832 118.049 105.014C117.922 105.972 117.083 106.739 116.101 106.739H113.569V88.7082L107.331 91.8902V106.731H103.128V88.7003L96.8909 91.8822V106.731H94.9991C94.0097 106.731 93.1706 105.956 93.0519 104.998V88.7161L86.8146 91.4944V116.586C86.8146 117.077 86.6246 117.496 86.308 117.829C85.9835 118.153 85.5639 118.343 85.0653 118.343H84.1629V124.581H85.0732C87.2658 124.581 89.2842 123.678 90.7169 122.238C92.1575 120.805 93.0598 118.787 93.0598 116.586V112.731C93.6851 112.882 94.3342 112.969 95.007 112.969H116.117C118.041 112.969 119.806 112.304 121.207 111.196C122.735 112.47 124.698 113.238 126.835 113.238C131.679 113.238 135.629 109.296 135.629 104.444V80.5078L129.391 76.3285V104.444L129.383 104.452ZM135.526 70.3207C134.457 71.3893 134.457 73.1149 135.526 74.1834C136.594 75.252 138.32 75.252 139.389 74.1834C140.457 73.1149 140.457 71.3893 139.389 70.3207C138.858 69.7904 138.162 69.5213 137.457 69.5213C136.753 69.5213 136.064 69.7904 135.526 70.3207ZM93.4239 71.6347V68.0886H98.0307V71.6268C98.0307 72.8932 96.9938 73.9301 95.7273 73.9301C94.4608 73.9301 93.4239 72.8932 93.4239 71.6268M93.4239 57.949V44.0021C93.4239 42.7277 94.4608 41.6987 95.7273 41.6987C96.9938 41.6987 98.0307 42.7356 98.0307 44.0021V61.8513H93.416V57.949H93.4239ZM87.1866 43.9942V57.9411H87.2499C90.0361 58.788 91.6034 60.4661 92.4582 61.8434H83.0469L83.0152 35.5485H76.7779V71.983C76.7779 71.983 76.7779 72.0146 76.7779 72.0305C76.6591 72.6479 76.2396 73.3207 74.7357 74.2863L69.0525 77.2229L73.9917 81.8139L77.9731 79.6213C78.4797 79.3047 78.9388 79.0356 79.3504 78.7506C79.5166 78.6319 80.4269 77.8958 80.6802 77.6425C81.8121 76.5106 82.6036 75.0146 82.8965 73.3602C83.0706 72.5212 83.0706 71.8167 83.0706 71.326V68.0886H87.1945V71.6268C87.1945 76.3364 91.0256 80.1675 95.7352 80.1675C100.445 80.1675 104.276 76.3364 104.276 71.6268V62.4608V43.9942C104.276 39.2845 100.445 35.4535 95.7352 35.4535C91.0256 35.4535 87.1866 39.2845 87.1866 43.9942ZM62.2373 67.8828C62.2373 67.8828 62.2373 49.8753 62.2532 49.6933L66.7016 47.2237L66.6462 67.8749C66.6462 69.0939 65.6568 70.0754 64.4378 70.0754C63.2188 70.0754 62.2294 69.0701 62.2294 67.8749M68.3559 39.1658L59.3086 44.1921C55.9208 45.8543 55.9842 49.2658 56.0079 50.3977V50.5956L56 67.8749C56 72.5291 59.7915 76.3206 64.4457 76.3206C69.1 76.3206 72.8914 72.537 72.8914 67.8907L72.9627 35.3427C72.9627 35.3427 71.5537 37.4957 68.3638 39.1579M129.32 38.6355C126.835 40.6064 128.133 44.1446 128.133 44.1446C128.133 44.1446 129.011 42.2132 130.792 41.9362C131.054 41.8966 137.022 41.8254 137.022 41.8254C138.241 41.8254 139.23 42.8148 139.23 44.0338V61.788H125.663V35.5564H115.144C113.236 35.5564 111.487 36.3479 110.244 37.5906C108.993 38.8334 108.21 40.5827 108.21 42.4903V61.0914C108.21 62.999 108.993 64.7483 110.244 65.991C111.487 67.2337 113.236 68.0253 115.144 68.0253H116.434C116.434 64.3209 119.442 62.9119 119.545 62.8644V61.7642H115.144C114.914 61.7642 114.724 61.6771 114.558 61.5188C114.4 61.3526 114.313 61.1626 114.313 60.9331V42.4982C114.313 42.2686 114.4 42.0787 114.558 41.9124C114.724 41.7541 114.914 41.6671 115.144 41.6671H119.561V72.1809C119.561 72.6637 119.371 73.0753 119.054 73.3919C118.729 73.7085 118.326 73.8906 117.843 73.8985H116.964V80.0013H117.851C119.996 80.0013 121.967 79.1226 123.376 77.7137C124.785 76.3127 125.663 74.3338 125.663 72.1888V68.049H145.468V44.0496C145.468 39.3953 141.676 35.6039 137.022 35.6039C137.022 35.6039 132.352 35.5643 132.328 35.5643C129.906 35.2239 127.595 32.1369 127.595 32.1369C127.595 32.1369 126.376 35.6751 129.312 38.6513M58.8179 32.034C57.7493 33.1026 57.7493 34.8282 58.8179 35.8967C59.8865 36.9653 61.612 36.9653 62.6806 35.8967C63.7492 34.8282 63.7492 33.1026 62.6806 32.034C62.1503 31.5037 61.4458 31.2346 60.7492 31.2346C60.0527 31.2346 59.3482 31.5037 58.8179 32.034ZM65.3481 32.034C64.2795 33.1026 64.2795 34.8282 65.3481 35.8967C66.4166 36.9653 68.1422 36.9653 69.2108 35.8967C70.2793 34.8282 70.2793 33.1026 69.2108 32.034C68.6804 31.5037 67.976 31.2346 67.2794 31.2346C66.5829 31.2346 65.8784 31.5037 65.3481 32.034ZM104.656 29.9444H105.479V29.1212H104.656V29.9444ZM105.906 29.9444H106.73V29.1212H105.906V29.9444ZM87.4557 23.6675V24.4749H87.8357V26.889C87.8357 27.0157 87.8198 27.1265 87.7961 27.2057C87.7803 27.2848 87.7407 27.3481 87.6932 27.3956C87.6457 27.4431 87.5745 27.4748 87.4953 27.4906C87.4161 27.5064 87.3053 27.5144 87.1787 27.5144H81.9229C81.3767 27.5064 80.9809 27.3481 80.7356 27.0474C80.4902 26.7466 80.3873 26.3271 80.4427 25.7809C80.4823 25.4564 80.5535 25.1635 80.6564 24.8944C80.7672 24.6332 80.9097 24.3799 81.0838 24.1503L80.3952 23.6596C80.2211 23.8891 80.0707 24.1345 79.9519 24.3957C79.8332 24.6569 79.7461 24.9339 79.6907 25.2347C79.6512 25.4484 79.6274 25.6542 79.6274 25.868C79.6274 26.0817 79.6353 26.2954 79.667 26.5091C79.7066 26.7861 79.7857 27.0315 79.8965 27.2531C80.0074 27.4748 80.1498 27.6647 80.324 27.8151C80.4981 27.9655 80.696 28.0843 80.9335 28.1713C81.163 28.2505 81.4163 28.298 81.6933 28.298H87.432C87.8198 28.298 88.1206 28.1872 88.3264 27.9735C88.5401 27.7677 88.643 27.4589 88.6509 27.0553V23.6517H87.4636L87.4557 23.6675ZM83.2843 23.6675H84.0996V22.8443H83.2843V23.6675ZM84.535 23.6675H85.3582V22.8443H84.535V23.6675ZM109.326 27.4906C109.231 27.4669 109.16 27.4352 109.112 27.3798C109.057 27.3244 109.025 27.2531 109.009 27.1582C108.993 27.0632 108.986 26.9365 108.986 26.7861V25.7492C109.017 25.2664 109.136 24.9181 109.35 24.7123C109.563 24.5065 109.896 24.4115 110.347 24.4353C110.513 24.4511 110.687 24.4907 110.869 24.5619C111.051 24.6332 111.218 24.7202 111.36 24.8152C111.511 24.9102 111.629 25.0131 111.724 25.1081C111.819 25.211 111.867 25.2981 111.867 25.3693V27.5144H109.69C109.54 27.5144 109.421 27.5064 109.326 27.4827M114.875 21.0079V26.889C114.875 27.0157 114.859 27.1265 114.835 27.2057C114.811 27.2848 114.78 27.3481 114.732 27.3956C114.685 27.4431 114.613 27.4748 114.534 27.4906C114.455 27.5064 114.344 27.5144 114.218 27.5144H112.666V24.4511H113.038V23.6596H111.859V24.2216C111.503 23.9208 111.123 23.7308 110.719 23.6517C110.315 23.5725 109.904 23.5962 109.468 23.7071C109.112 23.81 108.827 23.9762 108.621 24.2216C108.416 24.4669 108.281 24.7677 108.226 25.1239C108.21 25.2506 108.194 25.4089 108.178 25.583C108.17 25.7571 108.162 25.9392 108.154 26.1292C108.154 26.3191 108.147 26.5012 108.147 26.6832C108.147 26.8653 108.147 27.0157 108.154 27.1423C108.21 27.9022 108.653 28.2901 109.5 28.3059H111.859V28.9312C111.827 29.3666 111.701 29.6832 111.487 29.8811C111.273 30.0789 110.949 30.1818 110.513 30.1898C110.458 30.1898 110.379 30.1818 110.268 30.166C110.157 30.1502 110.038 30.1264 109.92 30.1106C109.801 30.0869 109.682 30.0631 109.571 30.0394C109.46 30.0156 109.381 29.9919 109.334 29.976L109.247 30.8072C109.405 30.8546 109.548 30.9021 109.698 30.9338C109.84 30.9655 109.999 30.9892 110.165 31.013C110.521 31.0525 110.854 31.0288 111.154 30.9575C111.455 30.8784 111.716 30.7597 111.938 30.5855C112.16 30.4114 112.334 30.1898 112.452 29.9286C112.579 29.6673 112.642 29.3666 112.65 29.0262V28.3217H114.455C114.795 28.3217 115.072 28.2347 115.27 28.0684C115.484 28.2347 115.753 28.3217 116.086 28.3217H121.951V25.6859C121.951 25.3455 121.872 25.0368 121.745 24.7677C121.611 24.4986 121.436 24.277 121.207 24.1028C120.977 23.9287 120.716 23.81 120.407 23.7387C120.099 23.6675 119.766 23.6596 119.402 23.7071C119.022 23.7546 118.642 23.8495 118.27 23.9841C117.898 24.1187 117.558 24.277 117.241 24.4669L117.582 25.2585C117.645 25.2189 117.756 25.1714 117.89 25.1081C118.033 25.0448 118.191 24.9735 118.365 24.9102C118.539 24.839 118.721 24.7756 118.911 24.7123C119.101 24.649 119.276 24.6015 119.434 24.5698C119.671 24.5223 119.885 24.5144 120.091 24.5461C120.289 24.5778 120.463 24.649 120.613 24.7519C120.764 24.8548 120.874 24.9973 120.962 25.1714C121.049 25.3455 121.088 25.5593 121.096 25.8046V27.5302H116.339C116.212 27.5302 116.101 27.5223 116.022 27.5064C115.935 27.4906 115.872 27.459 115.824 27.4115C115.777 27.364 115.737 27.3006 115.722 27.2215C115.698 27.1423 115.69 27.0394 115.682 26.9049V21.0237H114.867L114.875 21.0079ZM89.7591 21V27.0711C89.767 27.4748 89.8778 27.7756 90.0836 27.9893C90.2974 28.1951 90.5902 28.3059 90.9781 28.3138H105.811C106.199 28.3138 106.5 28.203 106.706 27.9893C106.912 27.7835 107.023 27.4748 107.03 27.0711V23.6675H105.843V24.4749H106.223V26.889C106.223 27.0157 106.207 27.1265 106.184 27.2057C106.16 27.2848 106.128 27.3481 106.081 27.3956C106.033 27.4431 105.962 27.4748 105.883 27.4906C105.804 27.5064 105.693 27.5144 105.566 27.5144H91.2314C91.1047 27.5144 90.9939 27.5064 90.9147 27.4906C90.8356 27.4748 90.7644 27.4431 90.7169 27.3956C90.6694 27.3481 90.6298 27.2848 90.614 27.2057C90.5902 27.1265 90.5823 27.0236 90.5744 26.889V21.8074H90.9543V21H89.767H89.7591Z" fill="white"/>
</mask>
<g mask="url(#mask0_3721_2176)">
<path d="M109.546 -22.8965L5.14734 62.5527L91.845 168.477L196.244 83.0273L109.546 -22.8965Z" fill="url(#paint0_linear_3721_2176)"/>
</g>
<mask id="mask1_3721_2176" style="mask-type:luminance" maskUnits="userSpaceOnUse" x="144" y="119" width="7" height="7">
<path d="M146.866 121.177H147.475C147.626 121.177 147.745 121.225 147.832 121.328C147.919 121.43 147.958 121.565 147.958 121.747C147.958 122.095 147.8 122.269 147.491 122.269H146.874V121.177H146.866ZM146.264 120.805V123.916H146.866V122.641H147.42L148.077 123.916H148.774L148.045 122.547C148.386 122.396 148.552 122.127 148.552 121.739C148.552 121.462 148.457 121.24 148.275 121.066C148.093 120.892 147.855 120.805 147.578 120.805H146.256H146.264ZM145.639 124.153C145.148 123.663 144.903 123.069 144.903 122.372C144.903 121.676 145.148 121.082 145.639 120.591C146.13 120.101 146.723 119.855 147.42 119.855C148.117 119.855 148.71 120.101 149.201 120.591C149.692 121.082 149.937 121.676 149.937 122.372C149.937 123.069 149.692 123.663 149.201 124.153C148.71 124.644 148.117 124.889 147.42 124.889C146.723 124.889 146.13 124.644 145.639 124.153ZM145.33 120.283C144.753 120.861 144.468 121.557 144.468 122.372C144.468 123.188 144.753 123.884 145.33 124.462C145.908 125.04 146.605 125.325 147.42 125.325C148.235 125.325 148.932 125.04 149.51 124.462C150.087 123.884 150.372 123.188 150.372 122.372C150.372 121.557 150.08 120.861 149.51 120.283C148.932 119.705 148.235 119.42 147.42 119.42C146.605 119.42 145.908 119.713 145.33 120.283Z" fill="white"/>
</mask>
<g mask="url(#mask1_3721_2176)">
<path d="M148.044 116.538L141.578 121.76L146.799 128.226L153.265 123.005L148.044 116.538Z" fill="url(#paint1_linear_3721_2176)"/>
</g>
<mask id="mask2_3721_2176" style="mask-type:luminance" maskUnits="userSpaceOnUse" x="56" y="129" width="90" height="9">
<path d="M57.0367 129.451V130.037H59.2213V134.192C59.2213 135.015 58.7068 135.546 57.9074 135.546C57.3216 135.546 56.8626 135.285 56.5301 134.77L56.4984 134.715H56.356L56.0077 134.992V135.118L56.0235 135.15C56.4509 135.799 57.1 136.139 57.9153 136.139C59.0551 136.139 59.8466 135.348 59.8466 134.208V129.451H57.0367ZM63.6144 130.464L65.0471 133.876H62.1659L63.6065 130.464H63.6144ZM63.4165 129.451L60.5907 136.029H61.2477L61.9126 134.453H65.2924L65.6724 135.364C65.7832 135.641 65.9098 135.831 66.0681 135.957C66.2106 136.076 66.3848 136.139 66.5826 136.139C66.7805 136.139 66.9467 136.084 67.0734 135.973L67.1446 135.846L66.9942 135.482L66.8438 135.443L66.7964 135.482C66.7489 135.522 66.6935 135.546 66.6143 135.546C66.4718 135.546 66.3848 135.482 66.2265 135.118L63.8439 129.443H63.4165V129.451ZM81.2973 129.451V132.419H77.2447V129.451H76.6273V136.029H77.2447V132.997H81.2973V136.029H81.9147V129.451H81.2973ZM85.912 130.464L87.3447 133.876H84.4635L85.9041 130.464H85.912ZM85.7141 129.451L82.8883 136.029H83.5453L84.2102 134.453H87.5901L87.97 135.364C88.0808 135.641 88.2075 135.831 88.3658 135.957C88.5162 136.076 88.6824 136.139 88.8803 136.139C89.0782 136.139 89.2444 136.084 89.371 135.973L89.4423 135.846L89.2919 135.482L89.1415 135.443L89.094 135.482C89.0465 135.522 88.9911 135.546 88.9119 135.546C88.7695 135.546 88.6745 135.482 88.5241 135.118L86.1415 129.443H85.7141V129.451ZM90.8433 130.037H92.5926C93.5108 130.037 94.0569 130.519 94.0569 131.327C94.0569 132.134 93.4949 132.641 92.5926 132.641H90.8433V130.037ZM90.2259 129.451V136.029H90.8433V133.219H92.2126C92.3076 133.219 92.5768 133.353 93.0992 134.564L93.1625 134.723C93.4554 135.427 93.7641 136.147 94.5714 136.147C94.7456 136.147 94.9514 136.092 95.0938 136.005L95.1255 135.989L95.1809 135.878L95.0463 135.522L94.9039 135.451L94.8485 135.498C94.7851 135.546 94.7139 135.562 94.6189 135.562C94.2073 135.562 93.9857 135.047 93.7324 134.445C93.487 133.852 93.2575 133.432 93.0596 133.195C94.0965 133.029 94.6902 132.364 94.6902 131.343C94.6902 130.171 93.8828 129.467 92.5213 129.467H90.2417L90.2259 129.451ZM95.1334 129.451V130.037H97.2785V136.029H97.9038V130.037H100.073V129.451H95.1334ZM105.202 130.464L106.634 133.876H103.753L105.194 130.464H105.202ZM105.012 129.451L102.186 136.029H102.843L103.508 134.453H106.888L107.268 135.364C107.379 135.641 107.505 135.831 107.663 135.957C107.806 136.076 107.98 136.139 108.178 136.139C108.376 136.139 108.542 136.084 108.669 135.973L108.74 135.846L108.59 135.482L108.431 135.443L108.384 135.482C108.336 135.522 108.281 135.546 108.21 135.546C108.067 135.546 107.972 135.482 107.822 135.118L105.439 129.443H105.012V129.451ZM109.524 129.451V136.029H113.339V135.443H110.141V129.451H109.524ZM124.025 129.451V132.419H119.972V129.451H119.354V136.029H119.972V132.997H124.025V136.029H124.642V129.451H124.025ZM128.639 130.464L130.072 133.876H127.191L128.631 130.464H128.639ZM128.449 129.451L125.623 136.029H126.28L126.945 134.453H130.325L130.705 135.364C130.816 135.641 130.943 135.831 131.101 135.957C131.243 136.076 131.418 136.139 131.615 136.139C131.813 136.139 131.98 136.084 132.106 135.973L132.177 135.846L132.027 135.482L131.877 135.443L131.829 135.482C131.782 135.522 131.726 135.546 131.647 135.546C131.505 135.546 131.418 135.482 131.259 135.118L128.877 129.443H128.449V129.451ZM133.578 130.037H135.328C136.246 130.037 136.792 130.519 136.792 131.327C136.792 132.134 136.23 132.641 135.328 132.641H133.578V130.037ZM132.961 129.451V136.029H133.578V133.219H134.94C135.035 133.219 135.304 133.353 135.826 134.564L135.89 134.723C136.183 135.427 136.491 136.147 137.299 136.147C137.473 136.147 137.671 136.092 137.821 136.005L137.845 135.989L137.9 135.878L137.774 135.522L137.631 135.451L137.576 135.498C137.512 135.546 137.441 135.562 137.346 135.562C136.935 135.562 136.713 135.047 136.46 134.445C136.214 133.852 135.985 133.432 135.787 133.195C136.824 133.029 137.417 132.364 137.417 131.343C137.417 130.171 136.61 129.467 135.249 129.467H132.961V129.451ZM66.3848 129.498L66.3135 129.625L66.4639 129.989L66.6143 130.029L66.6618 129.997C66.7251 129.95 66.7805 129.934 66.8438 129.934C66.9863 129.934 67.0417 129.997 67.1605 130.329L69.1393 136.029H69.5826L71.2606 130.607L72.9387 136.029H73.382L75.5983 129.633L75.622 129.578L75.5349 129.451H75.0125L73.1682 134.865L71.5377 129.451H71.0073L69.3689 134.881L67.7462 130.1C67.5721 129.578 67.295 129.324 66.9072 129.324C66.7172 129.324 66.5193 129.388 66.3927 129.49M113.996 131.05C113.996 132.031 114.803 132.467 115.626 132.823L115.919 132.949C116.806 133.321 117.51 133.614 117.51 134.35C117.51 135.087 116.885 135.538 115.975 135.538C115.231 135.538 114.589 135.221 114.154 134.651L114.122 134.604H113.988L113.671 134.905V135.023L113.695 135.055C114.17 135.728 115.064 136.147 116.014 136.147C117.265 136.147 118.143 135.403 118.143 134.335C118.143 133.266 117.178 132.799 116.236 132.395C116.133 132.348 116.022 132.3 115.911 132.253C115.08 131.889 114.621 131.58 114.621 131.026C114.621 130.393 115.183 129.942 115.998 129.942C116.568 129.942 117.059 130.179 117.463 130.638L117.526 130.678H117.621L117.898 130.424L117.938 130.361V130.266L117.906 130.234C117.407 129.641 116.75 129.332 115.99 129.332C114.827 129.332 113.98 130.052 113.98 131.05M138.913 132.736C138.913 131.137 140.132 129.934 141.755 129.934C143.378 129.934 144.581 131.137 144.581 132.736C144.581 134.335 143.362 135.538 141.755 135.538C140.148 135.538 138.913 134.335 138.913 132.736ZM138.288 132.736C138.288 134.675 139.776 136.139 141.755 136.139C142.008 136.139 142.357 136.44 142.697 136.733C142.784 136.812 142.879 136.891 142.966 136.963C143.283 137.232 143.647 137.477 144.13 137.477C144.525 137.477 144.787 137.327 144.905 137.24L144.937 137.216L144.969 137.089L144.795 136.773L144.66 136.701L144.605 136.749C144.517 136.812 144.367 136.891 144.169 136.891C143.853 136.891 143.591 136.693 143.267 136.424C143.077 136.258 142.903 136.124 142.737 136.005C144.233 135.601 145.214 134.319 145.214 132.728C145.214 130.789 143.726 129.324 141.747 129.324C139.768 129.324 138.28 130.789 138.28 132.728" fill="white"/>
</mask>
<g mask="url(#mask2_3721_2176)">
<path d="M109.367 85.5972L52.0065 132.613L91.8573 181.232L149.218 134.216L109.367 85.5972Z" fill="url(#paint2_linear_3721_2176)"/>
</g>
<defs>
<filter id="filter0_f_3721_2176" x="0" y="-24" width="207" height="207" filterUnits="userSpaceOnUse" color-interpolation-filters="sRGB">
<feFlood flood-opacity="0" result="BackgroundImageFix"/>
<feBlend mode="normal" in="SourceGraphic" in2="BackgroundImageFix" result="shape"/>
<feGaussianBlur stdDeviation="20" result="effect1_foregroundBlur_3721_2176"/>
</filter>
<linearGradient id="paint0_linear_3721_2176" x1="59.8653" y1="24.3959" x2="141.84" y2="124.55" gradientUnits="userSpaceOnUse">
<stop stop-color="#E4BE6D"/>
<stop offset="0.02" stop-color="#E4BE6D"/>
<stop offset="0.1" stop-color="#DEB868"/>
<stop offset="0.2" stop-color="#CFA95A"/>
<stop offset="0.3" stop-color="#B58F43"/>
<stop offset="0.39" stop-color="#9B752B"/>
<stop offset="0.64" stop-color="#E4BE6D"/>
<stop offset="0.81" stop-color="#D0A856"/>
<stop offset="0.87" stop-color="#BD9046"/>
<stop offset="0.95" stop-color="#A77635"/>
<stop offset="1" stop-color="#A06D2F"/>
</linearGradient>
<linearGradient id="paint1_linear_3721_2176" x1="101.272" y1="68.1416" x2="151.268" y2="130.058" gradientUnits="userSpaceOnUse">
<stop stop-color="#E4BE6D"/>
<stop offset="0.02" stop-color="#E4BE6D"/>
<stop offset="0.1" stop-color="#DEB868"/>
<stop offset="0.2" stop-color="#CFA95A"/>
<stop offset="0.3" stop-color="#B58F43"/>
<stop offset="0.39" stop-color="#9B752B"/>
<stop offset="0.64" stop-color="#E4BE6D"/>
<stop offset="0.81" stop-color="#D0A856"/>
<stop offset="0.87" stop-color="#BD9046"/>
<stop offset="0.95" stop-color="#A77635"/>
<stop offset="1" stop-color="#A06D2F"/>
</linearGradient>
<linearGradient id="paint2_linear_3721_2176" x1="75.2199" y1="104.67" x2="118.036" y2="156.906" gradientUnits="userSpaceOnUse">
<stop stop-color="#9B752B"/>
<stop offset="0.53" stop-color="#D0A856"/>
<stop offset="0.72" stop-color="#B38C3F"/>
<stop offset="0.88" stop-color="#A17B30"/>
<stop offset="1" stop-color="#9B752B"/>
</linearGradient>
</defs>
</svg>
